# xmcd
#
# Track frame offsets: 
#        150
#        9937
#        29145
#        43220
#        60672
#        73312
#        89880
#        108205
#        121390
#        138077
#        152200
#        164977
#        180380
#        198235
#        212970
#        224167
#        238212
#        253945
#        266060
#        279182
#
# Disc length: 3913 seconds
#
# Revision: 8
# Processed by: cddbd v1.5.2PL0 Copyright (c) Steve Scherf et al.
# Submitted via: ExactAudioCopy v1.3
#
DISCID=430f4714
DTITLE=Anne Murray - The Best...So Far
DYEAR=1994
DGENRE=Country
TTITLE0=Snowbird
TTITLE1=Now And Forever (You And Me)
TTITLE2=Danny's Song
TTITLE3=Nobody Loves Me Like You Do
TTITLE4=A Love Song
TTITLE5=Time Don't Run Out On Me
TTITLE6=You Won't See Me
TTITLE7=Just Another Woman In Love
TTITLE8=You Needed Me
TTITLE9=A Little Good News
TTITLE10=I Just Fall In Love Again
TTITLE11=Somebody's Always Saying Goodbye
TTITLE12=Broken Hearted Me
TTITLE13=Could I Have This Dance
TTITLE14=Daydream Believer
TTITLE15=Another Sleepless Night
TTITLE16=Shadows In The Moonlight
TTITLE17=Blessed Are The Believers
TTITLE18=Make Love To Me
TTITLE19=Over You
EXTD=EMI MUSIC CANADA\n7243 8 31158 2 2
EXTT0=
EXTT1=
EXTT2=
EXTT3=
EXTT4=
EXTT5=
EXTT6=
EXTT7=
EXTT8=
EXTT9=
EXTT10=
EXTT11=
EXTT12=
EXTT13=
EXTT14=
EXTT15=
EXTT16=
EXTT17=
EXTT18=
EXTT19=
PLAYORDER=
